<svg height="496pt" viewBox="0 0 496 496" width="496pt" xmlns="http://www.w3.org/2000/svg"><path d="m248 0c-136.753906 0-248 111.257812-248 248s111.246094 248 248 248 248-111.257812 248-248-111.246094-248-248-248zm142.664062 430.753906-9.230468-12.707031-12.9375 9.410156 9.28125 12.765625c-15.59375 10.5625-32.539063 19.273438-50.511719 25.824219l-4.90625-15.085937-15.214844 4.941406 4.886719 15.042968c-17.894531 5.144532-36.65625 8.191407-56.023438 8.855469v-15.800781h-16v15.800781c-19.367187-.664062-38.136718-3.703125-56.023437-8.855469l4.886719-15.042968-15.214844-4.941406-4.902344 15.085937c-17.976562-6.550781-34.914062-15.261719-50.515625-25.824219l9.28125-12.765625-12.933593-9.410156-9.234376 12.707031c-14.9375-11.691406-28.398437-25.152344-40.085937-40.089844l12.703125-9.230468-9.410156-12.945313-12.765625 9.28125c-10.5625-15.59375-19.273438-32.539062-25.824219-50.503906l15.085938-4.90625-4.949219-15.214844-15.042969 4.886719c-5.152344-17.902344-8.199219-36.664062-8.863281-56.03125h15.800781v-16h-15.800781c.664062-19.367188 3.703125-38.128906 8.855469-56.023438l15.042968 4.886719 4.949219-15.214843-15.085937-4.90625c6.550781-17.964844 15.261718-34.910157 25.824218-50.503907l12.765625 9.28125 9.410157-12.945312-12.703126-9.230469c11.6875-14.9375 25.148438-28.398438 40.085938-40.085938l9.230469 12.703126 12.9375-9.410157-9.28125-12.765625c15.59375-10.5625 32.539062-19.273437 50.511719-25.824218l4.90625 15.085937 15.214843-4.941406-4.886719-15.042969c17.886719-5.152344 36.65625-8.199219 56.023438-8.863281v15.800781h16v-15.800781c19.367188.664062 38.136719 3.703125 56.023438 8.855469l-4.886719 15.042968 15.214843 4.941406 4.90625-15.085937c17.972657 6.550781 34.910157 15.261719 50.511719 25.824219l-9.28125 12.765625 12.9375 9.410156 9.230469-12.707031c14.9375 11.691406 28.398438 25.152344 40.085938 40.089844l-12.703126 9.230468 9.410157 12.945313 12.765625-9.28125c10.5625 15.59375 19.273437 32.539062 25.824218 50.503906l-15.085937 4.90625 4.949219 15.214844 15.042968-4.886719c5.144532 17.894531 8.191407 36.65625 8.855469 56.023438h-15.800781v16h15.800781c-.664062 19.367187-3.703125 38.128906-8.855469 56.023437l-15.042968-4.886719-4.949219 15.214844 15.085937 4.902344c-6.550781 17.96875-15.261718 34.914062-25.824218 50.507812l-12.765625-9.28125-9.410157 12.941406 12.703126 9.234376c-11.679688 14.953124-25.140626 28.414062-40.078126 40.105468zm0 0"/><path d="m280 248c0-17.648438-14.351562-32-32-32s-32 14.351562-32 32 14.351562 32 32 32 32-14.351562 32-32zm-48 0c0-8.824219 7.175781-16 16-16s16 7.175781 16 16-7.175781 16-16 16-16-7.175781-16-16zm0 0"/><path d="m216.398438 287.601562c0 4.417969-3.582032 8-8 8-4.417969 0-8-3.582031-8-8 0-4.417968 3.582031-8 8-8 4.417968 0 8 3.582032 8 8zm0 0"/><path d="m295.601562 287.601562c0 4.417969-3.582031 8-8 8-4.417968 0-8-3.582031-8-8 0-4.417968 3.582032-8 8-8 4.417969 0 8 3.582032 8 8zm0 0"/><path d="m295.601562 208.398438c0 4.417968-3.582031 8-8 8-4.417968 0-8-3.582032-8-8 0-4.417969 3.582032-8 8-8 4.417969 0 8 3.582031 8 8zm0 0"/><path d="m216.398438 208.398438c0 4.417968-3.582032 8-8 8-4.417969 0-8-3.582032-8-8 0-4.417969 3.582031-8 8-8 4.417968 0 8 3.582031 8 8zm0 0"/><path d="m248 48c-110.28125 0-200 89.71875-200 200s89.71875 200 200 200 200-89.71875 200-200-89.71875-200-200-200zm184 200c0 14.761719-1.792969 29.097656-5.089844 42.855469l-84.75-24.238281c1.183594-6.03125 1.839844-12.25 1.839844-18.617188s-.65625-12.585938-1.847656-18.617188l84.75-24.238281c3.304687 13.757813 5.097656 28.09375 5.097656 42.855469zm-368 0c0-14.761719 1.792969-29.097656 5.089844-42.855469l84.75 24.238281c-1.183594 6.03125-1.839844 12.25-1.839844 18.617188s.65625 12.585938 1.847656 18.617188l-84.75 24.238281c-3.304687-13.757813-5.097656-28.09375-5.097656-42.855469zm120.878906-72.152344-63.375-61.28125c20.753906-19.679687 46.046875-34.582031 74.160156-42.933594l21.398438 85.582032c-11.964844 4.089844-22.855469 10.464844-32.183594 18.632812zm-11.175781 11.449219c-6.503906 7.941406-11.671875 16.976563-15.382813 26.726563l-84.816406-24.261719c7.953125-23.753907 20.601563-45.363281 36.871094-63.707031zm-15.375 94.679687c3.710937 9.75 8.878906 18.792969 15.382813 26.726563l-63.328126 61.242187c-16.269531-18.34375-28.925781-39.953124-36.871093-63.707031zm26.550781 38.175782c9.320313 8.167968 20.210938 14.542968 32.175782 18.632812l-21.398438 85.582032c-28.113281-8.359376-53.410156-23.253907-74.160156-42.933594zm-16.878906-72.152344c0-44.113281 35.886719-80 80-80s80 35.886719 80 80-35.886719 80-80 80-80-35.886719-80-80zm154.296875-60.703125 63.328125-61.242187c16.269531 18.34375 28.925781 39.953124 36.871094 63.707031l-84.824219 24.261719c-3.703125-9.75-8.878906-18.785157-15.375-26.726563zm-11.175781-11.449219c-9.320313-8.167968-20.210938-14.542968-32.175782-18.632812l21.398438-85.582032c28.113281 8.359376 53.410156 23.253907 74.160156 42.933594zm0 144.304688 63.375 61.28125c-20.753906 19.679687-46.046875 34.582031-74.160156 42.933594l-21.398438-85.582032c11.964844-4.089844 22.855469-10.464844 32.183594-18.632812zm11.175781-11.449219c6.503906-7.941406 11.671875-16.976563 15.382813-26.726563l84.824218 24.261719c-7.953125 23.753907-20.601562 45.363281-36.871094 63.707031zm-37.464844-240.992187-21.417969 85.648437c-5.03125-.824219-10.15625-1.359375-15.414062-1.359375s-10.382812.535156-15.414062 1.351562l-21.417969-85.640624c11.902343-2.429688 24.222656-3.710938 36.832031-3.710938s24.929688 1.28125 36.832031 3.710938zm-73.664062 360.578124 21.417969-85.648437c5.03125.824219 10.15625 1.359375 15.414062 1.359375s10.382812-.535156 15.414062-1.351562l21.417969 85.648437c-11.902343 2.421875-24.222656 3.703125-36.832031 3.703125s-24.929688-1.28125-36.832031-3.710938zm0 0"/></svg>